<svg width="13" height="10" viewBox="0 0 13 10" fill="none" xmlns="http://www.w3.org/2000/svg">
<path d="M12.1591 8.46174C11.3282 7.62645 10.7415 7.27532 10.7415 4.97202C10.7415 2.86179 9.42978 2.11158 8.35007 1.74707C8.19948 1.69373 8.08236 1.58899 8.02747 1.45856C7.8387 0.929488 7.30902 0.47168 6.60278 0.47168C5.89654 0.47168 5.36584 0.929488 5.17808 1.45899C5.12353 1.58945 5.00654 1.69424 4.856 1.7475C3.77527 2.11288 2.46455 2.86179 2.46455 4.97246C2.46455 7.27575 1.87737 7.62688 1.04647 8.46217C0.701999 8.80768 1.0134 9.45553 1.61584 9.45553H11.5892C12.1881 9.4551 12.502 8.80725 12.1591 8.46174Z" fill="white"/>
</svg>
